<?xml version="1.0" encoding="utf-8"?>
<!-- Generator: Adobe Illustrator 15.1.0, SVG Export Plug-In . SVG Version: 6.00 Build 0)  -->
<!DOCTYPE svg PUBLIC "-//W3C//DTD SVG 1.1//EN" "http://www.w3.org/Graphics/SVG/1.1/DTD/svg11.dtd">
<svg version="1.1" id="Layer_1" xmlns="http://www.w3.org/2000/svg" xmlns:xlink="http://www.w3.org/1999/xlink" x="0px" y="0px"
	 width="297.245px" height="228.061px" viewBox="0 0 297.245 228.061" enable-background="new 0 0 297.245 228.061"
	 xml:space="preserve">
<g>
	<path fill="#E6E6E6" d="M294.407,12.371c0.526-2.174,0.526-4.348,0-6.448c-0.375-1.649-1.123-2.924-2.174-3.898
		c-3.599-0.075-8.995-0.149-16.193-0.149l-3.823,0.3c-9.82,2.473-19.192,5.548-28.039,9.146
		c-12.97,5.249-22.791,10.946-29.538,17.093c-5.398,4.874-11.994,11.246-19.792,18.968c-4.873,4.872-8.696,8.846-11.32,11.845
		c-1.574,0.524-3.449,1.724-5.623,3.599c-0.225,0-0.524,0-0.75,0.075c0.525,0.45,0.675,1.2,0.601,2.249
		c0,3.749-4.723,5.773-14.244,5.998c-1.2,0.225-2.7,0.3-4.499,0.3c-1.274,0-3.147-0.149-5.623-0.374
		c-4.646-0.225-8.695-0.525-12.07-0.9c-3.524-0.675-5.473-0.974-5.848-1.049h-0.075c-2.773,0.075-4.648,0.224-5.773,0.599
		c-0.825,0.226-1.5,0.45-1.875,0.525c1.95,0.075,4.124,0.15,6.448,0.3c5.923,0.075,10.571,0.375,13.945,0.825l15.593,1.724
		c1.35,0,2.325-0.3,2.85-0.825c0.524-0.524,1.199-0.825,1.875-0.825c1.573,0,2.397,0.75,2.397,2.325
		c0,0.225-1.199,2.324-3.522,6.223h108.182c0.226-0.525,0.449-0.975,0.674-1.5c0.3-0.674,0.976-2.549,2.024-5.473
		c1.726-2.174,3.299-5.547,4.799-10.121c0.674-2.024,2.024-7.348,4.049-15.969c1.123-3.298,2.098-6.222,2.998-8.696
		c-0.675,0.224-1.5,0.375-2.399,0.375c-3.974,0-8.021-1.649-12.145-4.874c-0.226-0.15-2.399-2.25-6.598-6.297
		c-0.226-0.226-2.999-2.399-8.322-6.598c-2.474-1.949-3.672-3.823-3.672-5.697c0-0.675,0.149-1.35,0.373-2.024
		c-0.074-0.225-0.074-0.525-0.074-0.75c0-0.975,0.601-1.95,1.875-2.849c1.424-2.024,3.373-2.999,5.696-2.774
		c0.226,0,0.601,0,0.975,0c1.351-0.149,3.449-0.599,6.299-1.274c0.974-0.3,2.099-0.599,3.373-0.974
		c5.622-1.649,9.072-2.474,10.421-2.474c6.521,0,9.222,2.549,8.246,7.572c0,2.399-0.225,5.473-0.749,9.296
		c-0.449,3.524-0.675,7.422-0.75,11.695c0.975-2.924,1.424-4.498,1.424-4.873c-0.074-0.975-0.224-1.875-0.449-2.549
		C294.107,20.092,294.407,16.494,294.407,12.371L294.407,12.371z M247.027,40.484c3.073,1.05,5.172,1.95,6.372,2.625
		c1.349,0.824,2.399,1.799,3.149,2.998c0.375,0.675,0.974,1.725,1.799,3.149c1.948,2.849,2.924,6.823,2.924,11.996
		c0,4.648-2.85,8.096-8.546,10.421c-3.674,1.499-7.273,2.249-10.796,2.249c-7.048,0-11.695-2.549-13.945-7.646
		c-0.674-1.424-0.975-4.273-0.975-8.396c0-3.074,0-4.648,0.075-4.874c0.226-1.575,0.974-3.299,2.323-5.172
		c3.375-4.723,5.474-7.348,6.223-8.022c0.826-0.675,2.399-0.975,4.873-0.975C241.629,38.834,243.803,39.359,247.027,40.484
		L247.027,40.484z"/>
	<path fill="#E6E6E6" d="M148.966,103.983h-0.074c-5.924,11.695-8.847,21.366-8.847,28.938c0,0.975,0.15,2.475,0.525,4.349
		c0.524,3.073,1.424,5.997,2.624,8.62c3.674,8.173,9.671,12.222,17.992,12.222c4.424,0,16.194-2.999,35.312-8.997
		c0-0.225,0-0.449,0.075-0.676c0.3-1.424,1.649-2.621,3.973-3.598c3.074-1.424,6.897-3.822,11.471-7.196
		c1.124-0.675,3.448-1.875,6.898-3.599c1.573-1.949,2.924-2.924,4.122-2.924c1.875,0,2.849,0.75,2.849,2.25
		c0,1.273-0.3,3.447-0.899,6.371c-0.074,1.35-0.074,3.449,0,6.298c0.075,1.274-0.15,4.124-0.524,8.396c0.075,0,0.225,0,0.301,0
		c0.224-2.999,0.599-6.071,1.049-9.296c0.524-4.123,1.349-8.396,2.323-12.97c0.375-2.924,0.675-5.099,0.9-6.374
		c0.749-0.523,1.274-1.049,1.575-1.724c0.073-0.674,1.274-0.899,3.747-0.524c1.425,0.225,2.474,0.074,3-0.301
		c-0.076,0.076-0.076,0.151-0.076,0.227c-0.225,2.322-0.299,3.973-0.375,4.799c0.226-1.426,0.375-2.325,0.375-2.7s0-0.675,0-0.974
		c1.574-1.727,2.699-3.15,3.375-4.424c1.573-3.225,6.223-7.947,13.793-14.17c7.573-6.223,12.146-11.471,13.645-15.743
		c2.624-1.725,5.1-5.173,7.423-10.271H167.334c-1.424,2.399-3.374,5.473-5.698,9.221
		C156.313,99.036,152.039,103.983,148.966,103.983L148.966,103.983z M206.692,89.439c1.2-1.574,2.399-2.624,3.523-3.148
		c1.425-0.6,3.899-0.899,7.272-0.899c3.823,0,5.624,2.023,5.249,6.072c0,2.474-1.426,5.023-4.198,7.647
		c-3.823,5.698-8.023,8.997-12.445,9.821c-1.426,1.2-2.475,2.174-3.149,2.924c-2.774,3.225-7.646,6.898-14.47,11.171
		c-7.646,4.723-13.345,7.048-17.018,7.048c-2.324,0-3.974-0.75-4.799-2.174c-0.373-0.676-0.599-1.426-0.599-2.4
		c0-2.023,1.349-3.599,4.049-4.648c3.522-1.35,6.071-3.148,7.497-5.322c1.948-2.924,6.146-6.523,12.595-10.796
		C196.871,100.16,202.42,95.063,206.692,89.439L206.692,89.439z M146.867,132.771c4.723,0,9.37,2.924,14.095,8.697
		c3.973,4.948,5.997,8.547,5.997,10.796c0,1.124-0.45,2.174-1.274,3.147c-1.274,1.5-3.149,2.25-5.773,2.25
		c-5.997,0-10.796-3.299-14.469-9.821c-1.124-2.099-2.1-4.348-2.849-6.821c-0.525-1.799-0.824-2.924-0.824-3.299
		C141.77,134.422,143.493,132.771,146.867,132.771L146.867,132.771z"/>
	<path fill="#FF6600" d="M229.408,47.832c-1.35,1.874-2.098,3.598-2.323,5.172c-0.075,0.226-0.075,1.8-0.075,4.874
		c0,4.124,0.301,6.972,0.975,8.396c2.25,5.098,6.897,7.646,13.945,7.646c3.522,0,7.122-0.75,10.796-2.249
		c5.696-2.325,8.546-5.773,8.546-10.421c0-5.173-0.976-9.146-2.924-11.996c-0.825-1.424-1.424-2.474-1.799-3.149
		c-0.75-1.199-1.801-2.174-3.149-2.998c-1.2-0.675-3.299-1.575-6.372-2.625c-3.225-1.125-5.398-1.649-6.523-1.649
		c-2.474,0-4.047,0.3-4.873,0.975C234.882,40.484,232.783,43.108,229.408,47.832L229.408,47.832z M243.128,45.657
		c1.875,0,3.75,1.35,5.549,4.123c1.799,2.774,2.698,5.548,2.698,8.472c0,3.073-1.2,5.098-3.523,6.147
		c-0.9,0.375-2.175,0.675-3.748,0.899c-0.375-0.225-0.825-0.449-1.351-0.525c-3.223-1.274-5.098-1.874-5.473-1.874
		c-0.6,0-1.049,0.075-1.424,0.3c-0.226-0.375-0.375-0.825-0.45-1.35c-0.15-0.674-0.224-2.099-0.224-4.273
		c0-1.724,0.448-3.823,1.348-6.148C238.03,47.606,240.204,45.657,243.128,45.657L243.128,45.657z"/>
	<path fill="#EEEEEE" d="M248.677,49.78c-1.799-2.773-3.674-4.123-5.549-4.123c-2.924,0-5.098,1.949-6.598,5.772
		c-0.899,2.324-1.348,4.423-1.348,6.147c0,2.174,0.073,3.599,0.224,4.273c0.075,0.525,0.225,0.976,0.45,1.35
		c0.375-0.225,0.824-0.3,1.424-0.3c0.375,0,2.25,0.599,5.473,1.874c0.525,0.076,0.976,0.3,1.351,0.525
		c1.573-0.225,2.848-0.525,3.748-0.899c2.323-1.049,3.523-3.074,3.523-6.147C251.375,55.329,250.476,52.554,248.677,49.78
		L248.677,49.78z"/>
	<path fill="#FF3300" d="M170.108,120.852c-2.7,1.05-4.049,2.625-4.049,4.648c0,0.975,0.226,1.725,0.599,2.4
		c0.825,1.424,2.475,2.174,4.799,2.174c3.673,0,9.371-2.325,17.018-7.048c6.823-4.272,11.695-7.946,14.47-11.171
		c0.675-0.75,1.724-1.724,3.149-2.924c4.422-0.825,8.622-4.124,12.445-9.821c2.772-2.624,4.198-5.173,4.198-7.647
		c0.375-4.048-1.426-6.072-5.249-6.072c-3.373,0-5.848,0.3-7.272,0.899c-1.124,0.524-2.323,1.575-3.523,3.148
		c-4.272,5.623-9.82,10.721-16.492,15.294c-6.448,4.273-10.646,7.872-12.595,10.796C176.18,117.703,173.631,119.504,170.108,120.852
		L170.108,120.852z"/>
	<path fill="#999999" d="M145.442,147.841c3.673,6.522,8.472,9.821,14.469,9.821c2.624,0,4.499-0.75,5.773-2.25
		c0.824-0.974,1.274-2.023,1.274-3.147c0-2.249-2.024-5.848-5.997-10.796c-4.725-5.773-9.372-8.697-14.095-8.697
		c-3.374,0-5.098,1.65-5.098,4.949c0,0.375,0.299,1.5,0.824,3.299C143.343,143.493,144.318,145.742,145.442,147.841L145.442,147.841
		z"/>
	<path fill="#FF3300" d="M272.067,5.473c-2.85,0.675-4.948,1.125-6.299,1.275c-0.374,0-0.749,0-0.975,0
		c-2.323-0.225-4.272,0.749-5.696,2.773c-1.274,0.899-1.875,1.874-1.875,2.849c0,0.225,0,0.524,0.074,0.75
		c-0.224,0.674-0.373,1.35-0.373,2.024c0,1.874,1.198,3.748,3.672,5.697c5.323,4.198,8.097,6.373,8.322,6.598
		c4.198,4.048,6.372,6.148,6.598,6.297c4.123,3.224,8.171,4.874,12.145,4.874c0.899,0,1.725-0.151,2.399-0.375
		c1.124-0.525,1.95-1.425,2.323-2.774c0.151-0.524,0.226-1.874,0.226-4.048c0-0.3,0-0.6,0-0.825
		c0.075-4.273,0.301-8.171,0.75-11.695c0.524-3.823,0.749-6.897,0.749-9.296c0.976-5.023-1.725-7.572-8.246-7.572
		c-1.349,0-4.799,0.825-10.421,2.474C274.166,4.874,273.041,5.174,272.067,5.473L272.067,5.473z"/>
	<path fill="#FF6600" d="M129.624,69.722c1.125-0.375,3-0.524,5.773-0.599h0.075c0.375,0.075,2.324,0.374,5.848,1.049
		c3.375,0.375,7.423,0.675,12.07,0.9c2.476,0.225,4.349,0.374,5.623,0.374c1.799,0,3.299-0.075,4.499-0.3
		c9.521-0.225,14.244-2.249,14.244-5.998c0.074-1.049-0.075-1.799-0.601-2.249c-0.448-0.525-1.124-0.75-2.024-0.75l-4.646,0.825
		l-0.676,0.075l-34.786,0.75c-2.624-0.225-5.473-0.3-8.696-0.3l-4.573,0.3l-3.449-0.3c-2.024,0-3.074,0.75-3.074,2.25
		c0,1.574,1.424,2.399,4.273,2.399c2.174-0.076,4.048-0.076,5.623,0c0,0.374,0.074,0.749,0.299,1.049
		c0.225,0.45,0.6,0.75,1.049,0.974c0.226,0.075,0.524,0.075,0.899,0.075c0.076,0,0.226,0,0.375,0
		C128.124,70.172,128.8,69.948,129.624,69.722L129.624,69.722z"/>
	<path fill="#E6E6E6" d="M119.503,68.148c-2.849,0-4.273-0.825-4.273-2.399c0-1.5,1.05-2.25,3.074-2.25l3.449,0.3l4.573-0.3
		c3.224,0,6.072,0.076,8.696,0.3l34.786-0.75l0.676-0.075c-6.148,0-13.046-0.225-20.692-0.6c-14.32-0.749-24.74-1.124-31.263-1.124
		c-2.475,0-4.348,0.524-5.548,1.499c0.3,0.375,0.45,0.825,0.45,1.5c0,0.524-1.2,2.399-3.524,5.547
		c1.049-0.149,2.324-0.149,3.824-0.075l2.099-0.075c1.275,0,4.873,0.149,10.646,0.524c-0.449-0.224-0.824-0.524-1.049-0.974
		c-0.225-0.3-0.299-0.675-0.299-1.049C123.551,68.073,121.677,68.073,119.503,68.148L119.503,68.148z"/>
	<path fill="#FF3300" d="M115.829,69.647l-2.099,0.075c-1.5-0.075-2.774-0.075-3.824,0.075c2.324-3.148,3.524-5.023,3.524-5.547
		c0-0.674-0.15-1.125-0.45-1.5c-0.375-0.525-0.975-0.749-1.8-0.749c-1.049,0.3-1.649,0.45-1.874,0.45
		c-0.375-0.825-1.125-1.2-2.099-1.2c-1.425,0-2.624,0.825-3.6,2.549c-2.398,1.425-3.823,2.399-4.348,2.924
		c-1.874,1.799-3.523,3.898-5.098,6.297c-0.675,0.975-1.799,2.849-3.299,5.623c-1.949,3.524-2.924,5.848-2.924,6.823
		c0,1.274,0.6,2.024,1.874,2.399c-1.049,1.199-1.574,2.099-1.574,2.699c0,0.45,0.075,0.899,0.3,1.274
		c0.375,0.675,0.975,1.049,1.949,1.049c1.649,0,3.374-0.975,5.173-2.924c2.624,1.725,5.098,2.773,7.497,3.148
		c3.599,0.525,6.973,1.125,10.046,1.8c1.875,0.45,3.674,0.899,5.397,1.425c2.774,0.524,7.798,1.649,15.069,3.374
		c2.699,0.6,6.672,1.649,11.846,3.224c1.049,0.3,2.174,0.674,3.374,1.049h0.074c3.073,0,7.347-4.948,12.67-14.769
		c6.147-9.896,9.223-15.069,9.223-15.444c0-1.575-0.826-2.325-2.399-2.325c-0.676,0-1.351,0.3-1.875,0.825
		c-0.524,0.525-1.5,0.825-2.85,0.825l-15.593-1.724c-3.374-0.45-8.021-0.75-13.945-0.825c-2.324-0.149-4.498-0.225-6.448-0.3
		c-0.149,0-0.299,0-0.375,0c-0.374,0-0.674,0-0.899-0.075C120.702,69.797,117.104,69.647,115.829,69.647L115.829,69.647z"/>
	<path fill="#E6E6E6" d="M113.205,94.912c2.549,1.05,4.573,1.725,5.998,2.1c10.57,2.699,19.342,4.648,26.314,5.923
		c-5.174-1.575-9.146-2.624-11.846-3.224c-7.271-1.724-12.295-2.849-15.069-3.374C116.879,95.813,115.08,95.362,113.205,94.912
		L113.205,94.912z"/>
	<path fill="#FF6600" d="M230.609,124.075c-0.301,0.675-0.826,1.2-1.575,1.724c-0.226,1.275-0.525,3.45-0.9,6.374
		c-0.975,4.573-1.799,8.847-2.323,12.97c-0.45,3.225-0.825,6.297-1.049,9.296c-0.076,0-0.226,0-0.301,0
		c-1.349,0.224-2.099,0.899-2.25,1.95c-0.074,0.75,0,1.873,0.375,3.447c0,1.5-0.074,3.749-0.3,6.748
		c-0.524,1.875-0.749,3.299-0.749,4.273c0,0.225,0,0.525,0.075,0.749c-0.301,2.175-0.676,4.948-1.125,8.396
		c0,0.075,0.074,0.526,0.226,1.425c0.074,0.15,0.149,0.299,0.224,0.45c0.375,0.524,0.975,0.825,1.801,0.825
		c0.375,0,1.274-0.525,2.623-1.5c0.825-0.674,1.499-1.275,2.024-1.874c0.374-0.601,0.674-1.2,0.899-1.724
		c0.825-2.625,1.274-4.65,1.424-6.074c0.825-5.473,1.274-9.446,1.274-12.07c-0.074-1.273-0.149-2.398-0.224-3.373
		c0.375-1.574,0.75-3.373,1.198-5.248c0-0.075,0-0.15,0.076-0.225c0-0.226,0-0.375,0.074-0.6c0.075-0.225,0.149-0.451,0.225-0.675
		c2.625-9.446,4.125-16.494,4.573-21.065c0.076-0.826,0.15-2.477,0.375-4.799c0-0.075,0-0.15,0.076-0.227
		c-0.526,0.375-1.575,0.525-3,0.301C231.884,123.176,230.683,123.401,230.609,124.075L230.609,124.075z"/>
	<path fill="#FF3300" d="M224.985,139.744c0.6-2.924,0.899-5.098,0.899-6.371c0-1.5-0.974-2.25-2.849-2.25
		c-1.198,0-2.549,0.975-4.122,2.924c-3.45,1.724-5.774,2.924-6.898,3.599c-4.573,3.374-8.396,5.772-11.471,7.196
		c-2.323,0.975-3.673,2.174-3.973,3.598c-0.075,0.227-0.075,0.451-0.075,0.676c-0.074,0.75-0.074,1.725,0,2.924
		c-0.226,1.5-0.3,3.898-0.3,7.122c0,3.674,0.675,14.095,2.099,31.188c0,0.225-0.375,0.898-1.199,2.099
		c0,0.825,0.449,1.649,1.351,2.474c0.299,0.299,0.674,0.6,1.049,0.825c0.149,0.224,0.226,0.899,0.149,1.95
		c0.226,0.974,0.899,1.424,2.174,1.498c0.076,0,0.15,0,0.226,0c3.599,0,8.771-1.873,15.519-5.547c1.351-0.75,3.823-2.1,7.422-3.975
		c0.225-0.225,0.45-0.6,0.6-1.123c0.076-0.375,0.451-0.676,1.05-0.9c0.225-0.076,0.45-0.225,0.676-0.3
		c0.674-0.45,0.974-1.125,0.974-1.95c0.075-0.898-0.226-1.5-0.899-1.875c-0.449-0.224-1.05-0.373-1.724-0.373
		c-3.075,0.449-4.725,0.674-5.024,0.674c0.076-0.674,0.226-1.35,0.3-1.949c-0.074-0.15-0.149-0.299-0.224-0.449
		c-0.149-0.898-0.226-1.35-0.226-1.425c0.449-3.448,0.824-6.223,1.125-8.396c-0.075-0.224-0.075-0.524-0.075-0.75
		c0-0.974,0.225-2.397,0.749-4.272c0.226-2.999,0.3-5.248,0.3-6.748c-0.375-1.574-0.449-2.697-0.375-3.447
		c0.151-1.051,0.901-1.727,2.25-1.95c0.375-4.272,0.6-7.122,0.524-8.396C224.911,143.193,224.911,141.094,224.985,139.744
		L224.985,139.744z"/>
	<path fill="#E6E6E6" d="M232.107,150.016c-0.074,0.225-0.074,0.374-0.074,0.6c0.074-0.375,0.226-0.824,0.299-1.274
		C232.259,149.564,232.183,149.791,232.107,150.016L232.107,150.016z"/>
	<path fill="#E6E6E6" d="M222.737,182.703c-0.826,0-1.426-0.301-1.801-0.825c-0.074,0.599-0.224,1.274-0.3,1.95
		c0.3,0,1.949-0.227,5.024-0.676c0.674,0,1.274,0.149,1.724,0.375c0-1.574,0-2.924,0-4.199c-0.525,0.6-1.199,1.201-2.024,1.875
		C224.012,182.178,223.112,182.703,222.737,182.703L222.737,182.703z"/>
	<path fill="#E6E6E6" d="M226.635,187.65c-0.599,0.225-0.974,0.525-1.05,0.9c-0.149,0.523-0.375,0.898-0.6,1.125
		c-3.599,1.873-6.071,3.223-7.422,3.973c-6.747,3.674-11.921,5.547-15.519,5.547c-0.075,0-0.149,0-0.226,0
		c0.9,0.375,1.949,0.525,3.224,0.525c3.975,0,9.671-1.949,17.094-5.772c2.625-1.276,4.198-2.849,4.873-4.724
		c0.149-0.375,0.225-1.049,0.301-1.874C227.085,187.426,226.859,187.574,226.635,187.65L226.635,187.65z"/>
	<path fill="#E6E6E6" d="M198.447,194.922c0.224,1.125,0.599,2.025,1.198,2.775c0.076-1.051,0-1.727-0.149-1.95
		C199.121,195.523,198.746,195.223,198.447,194.922L198.447,194.922z"/>
	<path fill="#999999" d="M97.162,124.525c-1.725-1.574-3.6-2.025-5.548-1.424c-1.949-0.977-3.524-1.575-4.798-1.725
		c-0.524-1.274-1.949-2.699-4.423-4.273c-4.048-2.55-9.221-3.823-15.444-3.823l-1.35,0.074l-5.547,3.673
		c-4.723-0.375-7.646-0.599-8.922-0.599c-1.874,0-4.873,0.3-9.146,0.974c-0.75,0.076-1.5,0.525-2.325,1.352
		c-0.75,0.822-1.274,1.197-1.649,1.197l-13.269,0.227c-0.6,0.225-1.049,0.375-1.424,0.6c-0.975,0.525-1.649,0.975-1.95,1.499
		c-0.824,0.974-1.274,1.799-1.498,2.549c-0.301-0.075-0.601-0.075-0.825-0.075c-6.748,0-10.121,3.749-10.121,11.32v3.6
		c-0.675,0.674-1.949,1.948-3.824,3.672c-1.574,2.176-2.398,3.525-2.623,4.049c-0.225,0.525-0.375,1.65-0.375,3.299
		c0,4.124,1.724,6.824,5.248,8.248c-0.9,1.648-1.649,2.924-2.324,3.822c-0.225,0.375-0.3,1.35-0.3,2.85
		c0,0.074,0.374,1.649,1.05,4.723h13.644c0.825-4.948,1.275-8.396,1.275-10.346c-0.375-1.499-0.601-2.848-0.601-4.123
		c1.35-2.924,2.175-5.099,2.475-6.373c0.824-0.375,1.724-1.274,2.849-2.773c1.274-1.949,2.024-3.074,2.25-3.299
		c2.774-1.125,4.798-2.023,5.922-2.699c4.273-2.248,6.447-3.373,6.522-3.373c0.3,0,0.75,0.148,1.424,0.449
		c0.674,0.375,2.549,0.525,5.623,0.449c0.375,0,0.45,0.525,0.375,1.65l0.675,3.224c0.225,2.772,0.525,4.948,0.975,6.598
		c0.301,1.349,1.05,2.397,2.249,3.224c0.375,0.225,1.125,0.449,2.1,0.6c0.899,0.301,1.499,0.975,1.724,2.1
		c0.225,1.049,1.274,2.174,3.223,3.373c2.475,1.426,5.473,2.174,8.997,2.174c2.249,0,4.198-0.449,5.772-1.274
		c0.9-0.45,2.249-1.274,4.048-2.397c0.226-0.076,0.451-0.227,0.676-0.301c0.3,0.449,0.675,0.899,1.124,1.424
		c2.324,2.623,5.623,3.898,9.746,3.898c0.375,0,1.2-0.075,2.624-0.299c1.274,0,1.875,0.449,1.875,1.349
		c0,0.524,0.149,1.125,0.524,1.799c0.375,0.675,1.049,1.8,2.024,3.45c0.074,0.523,0.225,1.049,0.375,1.498h54.127
		c-0.224-0.375-0.524-0.75-0.748-1.274c-0.151-0.3-1.051-0.825-2.7-1.649c-1.424-0.75-2.174-1.498-2.248-2.324
		c-0.301-2.324-1.426-3.824-3.449-4.498c-2.175-0.75-3.374-2.099-3.673-3.974c-0.825-4.124-2.399-7.722-4.725-10.722
		c-3.073-4.047-6.971-6.146-11.695-6.371c-1.199-1.65-2.998-2.473-5.397-2.473c-4.723,2.022-7.123,3.072-7.347,3.147v-0.075
		c0-4.049-1.724-6.447-5.248-7.121c-0.225-1.426-0.45-2.625-0.6-3.449C102.484,128.874,100.685,127.15,97.162,124.525
		L97.162,124.525z M130.224,152.488c0.15,0.375,0.3,0.825,0.524,1.275c-1.574,1.05-5.173,3.75-10.795,8.098
		c-0.225-0.15-0.525-0.301-0.75-0.375c1.424-0.977,2.999-2.025,4.872-3.225C127.3,155.938,129.398,153.988,130.224,152.488
		L130.224,152.488z"/>
	<path fill="#999999" d="M59.002,192.148c-3.523,0.75-6.447,1.125-8.847,1.125c-6.521,0-10.195-0.525-10.871-1.5
		c-0.3-0.45-1.498-1.424-3.522-2.848c-0.825-0.602-2.625-1.426-5.323-2.549c-2.024-0.826-3.299-1.575-3.674-2.4
		c-1.199-2.324-2.999-4.498-5.323-6.522c-1.574-1.424-2.399-3.073-2.399-5.098c0.149-0.675,0.3-1.349,0.375-2.024H5.773
		c0,0,0,0,0,0.074c0.225,0.602,0.375,1.125,0.6,1.575c-0.225,0.375-0.45,0.825-0.675,1.349c-0.226,0.676-0.375,1.727-0.375,3
		c0,1.874,0.45,3.223,1.35,4.048c0.226,0.226,0.975,0.675,2.249,1.349c1.275,0.825,2.249,1.727,2.849,2.625
		c1.424,2.249,2.848,3.598,4.274,4.048c1.199,0.375,2.023,0.976,2.549,1.8c0.299,0.45,0.674,1.124,1.049,2.1
		c0.75,1.274,4.049,4.047,9.971,8.396c1.5,1.123,2.399,1.799,2.625,1.873c1.049,0.375,3.449,0.75,7.122,1.125
		c0.375,0.075,1.5,0.375,3.374,0.975c2.175,0.601,4.498,0.9,6.897,0.9c2.024,0,3.373-0.15,4.049-0.451
		c0.749-0.375,4.947-0.599,12.669-0.822c0.825-0.076,2.475-0.602,4.948-1.65c1.424-0.6,2.999-1.273,4.723-2.023
		c0.226-0.076,0.375-0.227,0.601-0.375c1.049,0.074,2.249,0.074,3.523,0.074c2.699,0,4.723-0.449,5.998-1.35
		c0.674-0.451,3.524-3,8.396-7.647c6.972-5.548,10.497-8.921,10.497-10.195c-0.076-0.45-0.151-0.825-0.301-1.125
		c0.75-0.524,1.5-1.049,2.324-1.649c0.825-0.6,3.523-2.623,8.246-5.997c-0.074,0.075-0.074,0.149-0.074,0.224
		c0,0.451,0.074,0.9,0.3,1.275c-1.649,1.125-2.998,2.023-4.123,2.849c-3.823,2.7-5.698,4.573-5.698,5.548
		c0,0.076,0.15,0.525,0.375,1.425c0.449,0.899,1.199,1.349,2.324,1.349c0.149,0,0.375-0.074,0.6-0.148
		c0.675,0.974,1.574,2.023,2.699,3.148c0,0.824-0.075,2.624-0.15,5.396c0.375,2.475,1.649,4.049,3.974,4.725
		c-1.5,2.623-2.249,5.023-2.249,7.122c-0.375,0.524-0.525,1.274-0.525,2.249c0,0.824,0.375,1.949,1.2,3.299
		c1.125,1.949,2.699,2.924,4.573,2.924c0.675,0,1.274-0.075,1.799-0.227c1.05-0.074,2.699-0.224,4.948-0.523
		c0.074,0,0.675,0.449,1.724,1.424c1.426,0.975,3.149,1.576,5.099,1.725c0.225,0.9,0.3,2.249,0.225,3.973
		c0.676,1.275,3.374,1.95,8.097,2.025c-0.6,1.273-0.9,2.099-0.9,2.474c0,0.524,0.15,0.974,0.375,1.499
		c0.449,0.826,1.199,1.275,2.324,1.275c0.225,0,0.524-0.074,0.825-0.15c0.224,0,0.449,0,0.674,0c1.725,0,5.772-2.025,12.22-6.072
		c6.674-4.198,10.122-6.297,10.348-6.373c3.598-0.824,6.596-2.773,8.921-5.697c1.573-1.949,2.474-3.823,2.848-5.623
		c0.15-0.375,0.226-0.9,0.226-1.574c0-1.125-0.375-2.1-1.125-2.773c-1.424-1.424-2.398-2.624-2.999-3.449
		c-0.599-1.574-1.049-2.625-1.274-3.224c-1.873-1.95-2.772-3.073-2.772-3.299c1.198-1.874,1.799-3.749,1.799-5.772
		c0-3.523-1.125-5.548-3.374-6.223c-1.724-0.525-3.449-1.499-5.099-3.074c-0.823-2.023-3.223-2.998-7.271-2.998
		c-1.948,0-3.523,0.449-4.798,1.424c-0.074-0.524-0.074-0.824-0.15-0.899c-0.225-0.3-0.524-0.75-0.825-1.274H96.263
		c0.149,0.449,0.3,0.899,0.449,1.274c-0.3,0.375-0.449,0.75-0.449,1.05c0,1.874,1.124,2.773,3.373,2.773
		c0.375,0,0.825,0,1.274-0.074c2.174-0.227,1.725,0.898-1.5,3.373c-3.223,2.475-4.647,4.198-4.422,5.1l0.074,0.072
		c-2.774,2.551-5.173,4.35-7.197,5.324c-0.675,0.3-3.823,1.125-9.297,2.474c-1.648-0.45-4.872-0.675-9.596-0.675
		C65.899,191.023,62.525,191.398,59.002,192.148L59.002,192.148z M13.57,173.631h0.075v0.074L13.57,173.631L13.57,173.631z
		 M134.797,211.116c0.074,0.075,0.149,0.075,0.225,0.149c-0.075-0.074-0.225-0.074-0.3-0.074L134.797,211.116L134.797,211.116z
		 M147.841,219.287c-0.074,0-0.074,0-0.149,0.074c0.075-0.074,0.075-0.148,0.075-0.224L147.841,219.287L147.841,219.287z"/>
	<path d="M292.608,0c-0.75,0-1.349,0.226-1.724,0.675C289.909,0.226,288.485,0,286.61,0c-37.409,0-72.421,19.118-105.032,57.277
		c-2.249,0.451-5.923,0.825-11.021,1.2c-5.022,0.975-8.997,1.425-11.995,1.5c-21.217,0.524-34.711,1.049-40.409,1.424
		c0.675-2.474-1.5-3.673-6.447-3.673c-6.672,0-13.045,4.348-19.117,13.12c-4.948,7.122-7.423,12.294-7.423,15.444
		c0,0.075,0.15,1.575,0.375,4.348c1.05,2.774,3.524,4.198,7.423,4.198c1.873,0,3.073-0.6,3.599-1.725
		c3.822,1.425,9.82,3.374,17.842,5.773c3.674,1.125,7.048,2.099,10.271,2.924h31.263c0.524-0.825,0.975-1.649,1.499-2.474
		c2.625-4.048,6.522-10.121,11.546-18.217c1.5-2.175,2.998-4.274,4.498-6.223c0.374-0.525,0.825-0.975,1.2-1.5
		c2.772-3.448,5.547-6.448,8.32-8.921c0.976-0.825,6.373-6.373,16.345-16.568c7.122-7.272,13.568-12.82,19.267-16.493
		c9.82-6.373,19.566-11.771,29.238-16.119c1.274-0.525,2.475-1.125,3.749-1.649c0.524,1.049,1.424,2.474,2.698,4.198
		c2.625,3.823,5.549,7.422,8.921,10.945c9.146,9.671,17.468,14.694,24.891,15.069c-1.274,4.724-2.924,9.746-4.948,15.22
		c-5.473,14.919-11.396,26.239-17.692,33.812c-2.475,2.924-5.249,5.848-8.396,8.921h7.721c2.399-2.399,4.573-4.723,6.448-6.973
		c7.722-9.071,14.094-20.841,18.967-35.386c4.499-13.344,6.747-25.489,6.747-36.51C297.931,7.647,296.432,0,292.608,0L292.608,0z
		 M289.909,3.299c-0.075,0.3-0.075,0.6-0.075,0.899c0,1.274,0.526,7.422,1.5,18.593c0,4.273-0.599,9.221-1.724,14.769
		c-3.823-2.774-10.796-6.972-20.768-12.52c-1.724-0.974-4.049-4.048-7.122-9.296c-1.125-2.024-2.324-3.523-3.522-4.648
		c7.046-2.625,14.244-4.573,21.516-5.998C283.687,4.349,287.136,3.749,289.909,3.299L289.909,3.299z M112.156,63.649
		c-0.226,0.225-0.226,0.6,0,1.125c-3.225,3.674-9.747,11.546-19.567,23.542c-1.2-0.375-1.8-1.125-1.8-2.399
		c0-2.624,2.474-6.747,7.497-12.445C103.608,67.398,108.257,64.175,112.156,63.649L112.156,63.649z M116.429,67.474
		c0.225-0.45,0.375-0.825,0.45-1.2c0.226-0.375,0.449-0.825,0.6-1.349c28.264,0.524,47.831,0.224,58.627-1.05
		c-1.424,1.724-2.85,3.524-4.198,5.323c-0.45-0.075-0.899-0.15-1.35-0.226c-6.823-0.974-24.74-1.499-53.604-1.499
		C116.729,67.474,116.579,67.474,116.429,67.474L116.429,67.474z M113.58,72.196c1.949,0.45,4.723,0.899,8.247,1.274
		c10.421,1.274,24.665,1.875,42.732,1.875c0.976,0,1.949,0,2.774,0c-6.073,8.396-11.695,17.168-16.793,26.239
		c-3.149-1.725-10.571-3.974-22.192-6.748c-13.419-3.224-22.941-5.247-28.564-5.997v-0.375c0.075-0.149,3.299-3.898,9.671-11.171
		C111.105,75.42,112.456,73.696,113.58,72.196L113.58,72.196z"/>
	<path d="M148.066,106.083c-0.074,0-0.074,0-0.074,0.076c-6.298,11.619-9.747,19.266-10.271,22.939
		c-0.524,0.375-0.825,0.977-0.825,1.801c0,0.074,0.301,1.725,0.899,4.947c0.899,3.824,2.1,7.272,3.674,10.496
		c4.948,10.121,12.295,15.219,21.966,15.219c2.774,0,4.724-0.524,5.848-1.498c0.076,0,0.076,0,0.15,0
		c6.148,0,14.319-2.549,24.516-7.574c0.075,11.32,1.124,23.917,3.148,37.711c-1.125,0.674-1.725,1.799-1.725,3.523
		c0,0.074,0.6,1.725,1.725,4.948c1.574,3.224,3.373,4.874,5.549,4.874c5.622,0,12.443-2.775,20.315-8.322
		c7.348-5.174,11.021-9.072,11.021-11.621c0.976-3.447-0.448-5.174-4.273-5.174c0.526-1.873,0.975-4.121,1.5-6.821
		c1.424-9.37,2.325-15.294,2.773-17.618c5.024-17.768,7.497-28.264,7.497-31.637c0.076-0.225,0.076-0.525,0.15-0.75
		c9.296-7.121,17.018-13.72,23.165-19.792h-7.721c-5.174,4.874-11.246,9.971-18.293,15.144c-0.075,0-0.075,0-0.149,0
		c-0.375,0-0.75,0.301-1.125,0.976c-4.424,3.223-9.222,6.446-14.394,9.82c-5.924,3.823-17.244,9.896-33.812,18.293l-19.043,9.446
		c0-0.225,0-0.525,0-0.75c0-5.022-2.774-10.495-8.247-16.418c-5.773-6.223-11.994-9.521-18.817-10.045
		c0.75-1.65,1.649-3.75,2.699-6.299c3.375-8.022,6.673-14.769,10.045-20.167h-31.262
		C134.871,104.433,142.669,105.858,148.066,106.083L148.066,106.083z M161.636,155.863c-3.674,0-7.347-2.175-11.171-6.447
		c-3.748-4.273-5.923-8.623-6.447-13.045c6.223,0.975,11.472,3.672,15.744,8.021c3.823,4.047,5.473,7.797,4.874,11.171
		L161.636,155.863L161.636,155.863z M228.734,134.195c0.226-1.273,0.226-2.397,0.074-3.297c1.801-1.275,3.6-2.551,5.323-3.748
		c-1.425,5.098-3.149,12.145-5.022,21.217c-3.299,15.816-5.249,25.863-5.773,30.212c-0.149,0.075-0.3,0.075-0.375,0.149
		C224.835,170.258,226.784,155.412,228.734,134.195L228.734,134.195z M223.637,134.496c0.224-0.225,0.524-0.373,0.824-0.524
		c-0.824,4.198-2.024,10.722-3.599,19.642c-2.475,14.02-3.898,23.242-4.348,27.738c-1.95,0.826-4.274,1.801-6.973,3.075
		c-2.774,1.274-5.174,2.325-7.048,3.299c0-0.226,0-0.375,0-0.526c-1.05-19.566-2.248-31.936-3.674-37.26
		C206.168,145.967,214.415,140.793,223.637,134.496L223.637,134.496z M215.99,188.551c1.123-0.525,2.248-0.977,3.223-1.5
		c0.226-0.15,0.524-0.299,0.75-0.375c1.574-0.75,2.849-1.424,3.897-2.1c0.825,0.301,1.95,0.449,3.374,0.525l-0.6,0.449
		c-4.049,3.898-11.919,8.022-23.614,12.295c-0.75-2.099-1.125-3.299-1.125-3.599c0.149-0.3,0.299-0.524,0.375-0.749
		C205.719,192.823,210.292,191.174,215.99,188.551L215.99,188.551z"/>
	<path d="M259.172,47.531c-3.522-6.972-9.071-10.496-16.494-10.496c-6.521,0-11.544,3.598-14.919,10.871
		c-2.174,4.573-3.223,8.547-3.223,11.92c0,2.774,1.049,5.623,3.149,8.547c3.522,5.023,9.145,7.497,16.867,7.497
		c9.972,0,15.819-5.848,17.692-17.468C261.945,54.728,260.896,51.055,259.172,47.531L259.172,47.531z M242.004,40.034
		c6.222,0,10.945,2.774,14.17,8.247c2.174,3.673,3.223,6.972,3.223,10.046c0,3.448-1.424,6.672-4.198,9.671
		c-2.999,3.224-6.598,4.874-10.72,4.874c-5.924,0-10.497-1.875-13.72-5.624c-2.25-2.624-3.374-5.023-3.374-7.271
		c0.374-3.523,1.274-6.898,2.698-10.196C232.933,43.258,236.905,40.034,242.004,40.034L242.004,40.034z"/>
	<path d="M234.281,45.657c-0.974,0-1.498,0.525-1.498,1.574c0,0.825,0.524,1.275,1.498,1.275c0.901,0,1.35-0.45,1.35-1.35
		C235.631,46.182,235.181,45.657,234.281,45.657L234.281,45.657z"/>
	<path d="M247.626,42.658c0-0.975-0.449-1.499-1.349-1.499c-0.976,0-1.5,0.524-1.5,1.574c0,0.824,0.524,1.274,1.5,1.274
		C247.177,44.008,247.626,43.558,247.626,42.658L247.626,42.658z"/>
	<path d="M244.027,45.282c-4.348,0-7.347,2.1-9.07,6.372c-0.976,2.249-1.424,4.723-1.424,7.348c0,4.723,3.522,7.122,10.645,7.122
		c5.023,0,7.722-3.749,7.947-11.246c0.074-1.649-0.149-3.298-0.825-4.873C250.025,46.856,247.626,45.282,244.027,45.282
		L244.027,45.282z M244.104,63.125c-5.174,0-7.723-1.275-7.723-3.898c0.076-1.799,0.375-3.599,0.899-5.473
		c1.125-3.674,3.074-5.473,5.848-5.473c4.123,0,6.147,2.174,6.147,6.447C249.126,60.352,247.402,63.125,244.104,63.125
		L244.104,63.125z"/>
	<path d="M255.274,50.53c-0.976,0-1.5,0.525-1.5,1.575c0,0.825,0.524,1.274,1.5,1.274c0.899,0,1.349-0.45,1.349-1.349
		C256.549,51.055,256.098,50.53,255.274,50.53L255.274,50.53z"/>
	<path d="M251.899,65.149c-0.674,0-1.049,0.226-1.274,0.75c-0.149,0.3-0.225,0.6-0.225,0.899c0,0.675,0.075,1.05,0.149,1.125
		c0.825,0.299,1.274,0.45,1.35,0.45c0.899,0,1.351-0.524,1.351-1.649C253.174,65.674,252.724,65.149,251.899,65.149L251.899,65.149z
		"/>
	<path d="M238.405,70.997c0.899,0,1.349-0.45,1.349-1.349c0-0.975-0.449-1.499-1.349-1.499c-0.975,0-1.5,0.524-1.5,1.574
		C236.905,70.547,237.431,70.997,238.405,70.997L238.405,70.997z"/>
	<path d="M230.158,61.626c0.899,0,1.351-0.45,1.351-1.35c-0.076-0.975-0.526-1.5-1.351-1.5c-0.975,0-1.499,0.524-1.499,1.575
		C228.659,61.176,229.184,61.626,230.158,61.626L230.158,61.626z"/>
	<path d="M222.961,85.091c-2.174-3.224-5.397-4.874-9.821-4.874c-0.149,0-17.543,15.22-52.254,45.657
		c0,0.674,0.899,2.025,2.625,4.048c2.174,2.624,4.573,3.897,7.046,3.897c36.287-17.242,54.429-31.561,54.429-43.031
		C224.985,89.064,224.311,87.116,222.961,85.091L222.961,85.091z M201.744,110.881c-2.174,1.799-7.047,4.949-14.693,9.445
		c-8.771,5.174-14.244,7.798-16.418,7.798c-0.899-1.125-1.575-1.874-1.95-2.174c7.122-5.698,21.667-18.443,43.708-38.235
		c4.648,0,6.972,0.975,6.972,2.924c0,3.974-1.499,7.348-4.423,9.971C210.066,104.134,205.644,107.583,201.744,110.881
		L201.744,110.881z"/>
	<path d="M72.271,114.255c2.324,0,4.123,0.749,5.548,2.249c0.825,0.824,1.574,1.875,2.398,3.148c0.226,0.225,1.2,0.299,2.924,0.15
		c1.5-0.15,2.399,0.225,2.7,1.199c0.149,0.524,0.224,1.426,0.149,2.773c0.824,0.3,1.274,0.451,1.349,0.451
		c2.624,0,4.725-0.301,6.373-0.977c0.3-0.074,0.675,0.825,1.124,2.775c0.375,0.898,1.726,1.574,3.975,1.949
		c2.099,0.373,3.147,0.824,3.147,1.35c0,0.674-0.224,1.724-0.749,3.299c0,0.824,0.9,1.572,2.624,2.398
		c1.725,0.824,2.624,1.799,2.624,2.999c0,0.075,0,0.825,0,2.323c0.15,1.5,0.6,2.248,1.274,2.248c0.449,0,0.824-0.224,1.05-0.748
		c0.225-0.15,0.825-0.75,1.874-1.801c1.125-1.197,3.449-1.799,6.897-1.799c0.524,0,1.125,0.375,1.874,1.125
		c0.675,0.674,1.05,1.125,1.05,1.35c0,0.074-0.075,0.375-0.15,0.975c0.075,0.451,0.3,0.75,0.824,0.826
		c0.151,0.523,0.601,0.822,1.426,0.822l1.649-0.674c1.123-0.449,2.398-0.675,3.823-0.675c0.674,0,0.974,0.974,1.049,2.849
		c-0.075,0.15-0.149,0.375-0.149,0.602c0,0.148,1.125,0.599,3.373,1.424c0.301,0.148,0.6,0.599,0.899,1.273
		c0.226,0.525,0.676,0.825,1.35,0.825c0.899,0,1.35-0.675,1.35-2.024c0.524-2.024-0.825-3.073-4.124-3.073c0-0.075,0-0.226,0-0.3
		c0.225-3.074-1.35-4.574-4.723-4.574c-1.649,0-2.924,0.15-3.899,0.45c-1.124-2.772-3.522-4.198-7.196-4.198
		c-2.399,0-4.499,0.6-6.372,1.873c-0.076,0.076-0.226,0.151-0.301,0.227c-0.074-1.35-0.15-2.249-0.3-2.699
		c-0.6-1.574-2.1-2.625-4.573-3.148v-0.15c0.75-2.773,0.15-4.498-1.874-5.248c-3.898-2.398-6.522-3.973-7.872-4.723
		c-2.623,0.149-4.873-0.6-6.598-2.248c-0.974-0.901-1.499-1.201-1.724-0.977c-0.375,0.525-1.875,0-4.423-1.424
		c-1.875-3.673-5.023-5.473-9.446-5.473c-5.023,0-8.847,0.9-11.621,2.624c-0.75,0.524-1.349,0.974-1.874,1.499
		c-1.8-0.975-5.099-1.499-9.896-1.499c-4.35,0-7.723,0.825-10.122,2.474c-0.6,0.375-1.049,0.825-1.424,1.275
		c-1.05-0.525-2.698-0.75-4.948-0.75c-5.023,0-9.071,1.349-12.295,4.123c-1.724,1.424-2.849,2.773-3.373,4.047
		c-1.051-0.447-2.25-0.674-3.674-0.674c-2.024,0-3.6,1.35-4.874,4.124c-0.824,1.95-1.274,3.448-1.274,4.573
		c0,0.074,0.15,1.199,0.375,3.523c0.075,0.225,0.15,0.523,0.226,0.75c-0.9,0.375-1.649,1.049-2.324,2.023
		c-0.675,1.049-1.125,2.1-1.2,3.074c-1.498,0.375-2.623,1.799-3.448,4.349C0.226,148.591,0,150.314,0,151.89
		c0,1.799,0.825,3.599,2.475,5.473c0.6,0.75,1.125,1.349,1.5,1.799h6.747c0-0.075,0-0.224,0-0.3c0-0.674-1.274-1.275-3.899-1.65
		c-2.624-0.373-3.973-2.174-3.973-5.321c0-1.649,0.6-3.45,1.874-5.323c0.375-0.524,0.749-0.975,1.05-1.35
		c1.274-0.074,1.799-1.273,1.724-3.599c0.525-0.749,1.35-1.349,2.325-1.724c0.224,0.074,0.449,0.074,0.674,0.074
		c0.674,0,1.049-0.301,1.274-0.899c0.299-0.224,0.45-0.524,0.45-0.825c0-0.824-0.375-1.273-1.124-1.424
		c-0.75-1.5-1.125-2.773-1.125-3.748c0.074-0.975,0.3-1.949,0.675-2.924c0.75-1.875,1.874-2.774,3.448-2.774
		c0.075,0,0.975,0.226,2.549,0.75c0,0.075,0,0.075,0,0.149c0.825,0.301,1.274,0.449,1.35,0.449c0.075-0.148,0.15-0.299,0.226-0.449
		c0.75-0.225,1.124-0.6,1.124-1.274c0-0.075-0.075-0.224-0.15-0.375c0.525-0.825,1.051-1.575,1.725-2.323
		c2.399-2.924,6.223-4.424,11.396-4.424c2.324,0,3.599,0.226,3.974,0.676c0.074,0.074,0.15,0.224,0.226,0.299
		c0.224,0.525,0.674,0.75,1.349,0.75s1.124-0.225,1.499-0.75c0.375-0.674,0.675-1.199,0.976-1.574
		c1.274-1.574,4.198-2.398,8.696-2.398c3.973,0,6.896,0.449,8.696,1.349c0,0.601,0.075,0.974,0.15,1.05
		c0.824,0.299,1.274,0.45,1.349,0.45c0.524,0,1.05-0.3,1.425-0.825c0.825-1.125,1.35-1.799,1.499-1.875
		C63.95,115.154,67.324,114.255,72.271,114.255L72.271,114.255z"/>
	<path d="M131.048,158.861c-0.074-0.975-0.524-1.499-1.349-1.499c-0.226,0-1.051,0.599-2.475,1.799h3.823
		C131.048,159.086,131.048,158.938,131.048,158.861L131.048,158.861z"/>
	<path d="M10.722,159.161H3.975c0.599,0.75,0.899,1.125,0.899,1.2c0,0.076-0.375,2.398-1.125,7.121c0,0.825,0.449,2.7,1.274,5.624
		c0,0.3-0.45,1.649-1.274,4.124c0,0.074,0.3,1.498,0.975,4.121c1.35,2.625,3.749,3.975,7.272,3.975c0.375,0,0.75,0,0.974-0.074
		c-0.149,0.674-0.224,1.273-0.224,1.799c0,1.125,2.473,4.049,7.497,8.696c5.172,4.798,8.771,7.196,10.645,7.196
		c0.375,0,0.75,0,1.051,0c0.374,0.525,0.899,1.051,1.724,1.65c1.874,1.424,4.124,2.099,6.822,2.099c1.649,0,3.074-0.45,4.198-1.274
		c1.274,1.125,3.373,1.649,6.448,1.649c5.098,0,8.471-0.899,10.195-2.624c1.424,0.525,3.523,0.75,6.297,0.75
		c3.149,0,5.548-0.75,7.272-2.174c1.124-0.9,1.725-1.725,1.8-2.55c1.124,0.901,2.998,1.349,5.547,1.349
		c2.924,0,5.323-0.748,7.122-2.248c1.274-1.123,1.95-2.174,1.95-3.148c0-0.076,0-0.15,0-0.225c0.074,0,0.074,0,0.149,0
		c2.549,0,9.071-6.148,19.642-18.368c12.671-10.271,19.268-16.493,19.942-18.667h-3.823c-3.149,2.624-9.146,8.172-17.992,16.568
		c-12.371,11.844-18.817,18.218-19.192,19.117h-0.075c-0.525,0-1.125,0.676-1.799,2.024c-0.674,1.274-2.699,1.948-5.998,1.948
		c-1.95,0-3.148-0.225-3.599-0.674s-0.9-0.676-1.35-0.676c-0.825,0-1.35,0.375-1.424,1.2c-0.15-0.075-0.301-0.075-0.45-0.075
		c-0.375,0-1.05,0.6-2.1,1.799c-0.975,1.2-2.924,1.799-5.697,1.799c-2.624,0-4.273-0.299-5.098-0.974
		c-0.076-0.974-0.525-1.499-1.35-1.499c-0.674,0-1.2,0.225-1.5,0.6c-0.524,0.225-0.75,0.676-0.75,1.426c0,0.148,0,0.299,0.075,0.447
		c-0.975,1.275-3.749,1.875-8.247,1.875c-2.324,0-3.749-0.375-4.274-1.199v-0.074c0.076-1.049-0.449-1.575-1.424-1.575
		c-0.6,0-1.199,0.45-1.724,1.274c-0.525,0.824-1.5,1.199-2.85,1.199c-0.824,0-1.949-0.225-3.448-0.75
		c-1.574-0.523-2.324-0.974-2.324-1.349c0.074-1.499-0.524-2.249-1.649-2.249c-0.6,0-0.975,0.299-1.2,0.824
		c-0.524-0.15-1.199-0.299-1.949-0.374c-2.774-0.526-4.123-1.425-4.123-2.7c0.524-0.599,0.749-1.197,0.749-1.873
		c0-0.525-0.749-0.9-2.324-0.975c-1.799-0.15-3.148-1.05-4.123-2.773c-1.424-2.625-2.549-4.049-3.523-4.275
		c-0.601,0.301-0.9,0.301-0.9,0c0.525-1.424,0.75-2.473,0.75-3.147c-0.075-1.05-0.524-1.575-1.35-1.575
		c-0.524,0-0.974,0.375-1.349,1.051c-0.6-0.449-1.725-1.051-3.299-1.875c-2.475-1.274-3.749-2.698-3.749-4.348
		c0-0.676,0.375-1.426,1.125-2.1c0.75-0.75,1.125-1.35,1.125-1.875c-1.5-2.023-2.25-3.973-2.25-5.848
		c0-2.023,0.15-3.522,0.375-4.348c0.375-0.975,1.125-1.799,2.249-2.474C10.046,160.137,10.571,159.688,10.722,159.161
		L10.722,159.161z"/>
	<path d="M77.22,154.363c-0.75,0.375-1.2,0.525-1.35,0.525c-0.074,0.6,0.149,1.424,0.6,2.474c-0.225,0.75-1.948,1.125-5.247,1.125
		c-0.676-0.75-1.125-1.125-1.5-1.125c-0.6,0-1.2,0.45-1.799,1.349c-0.6,0.825-1.274,1.275-1.95,1.275c-0.75,0-2.849-0.674-6.372-2.1
		c-1.574-0.676-2.399-1.424-2.399-2.323c0.975-1.2,1.5-2.099,1.5-2.774c0.3-1.199-0.375-1.799-1.949-1.799
		c-3.073,0-4.873-0.601-5.248-1.801c0.075-1.873,0-3.522-0.3-4.947c-1.125-5.771-2.324-8.621-3.599-8.621
		c-0.149,0.676-1.574,0.975-4.273,0.975c-1.574,0-2.474-0.225-2.549-0.674c-0.074-0.451-0.525-0.676-1.274-0.676
		c-4.573,3.448-7.797,5.323-9.671,5.623c0-1.5-0.674-2.25-1.949-2.25c-1.125,0-1.649,0.75-1.649,2.325
		c0,0.524,0.375,1.575,1.125,2.999c0,0.375-0.825,0.674-2.399,0.898c-1.649,0.301-2.624,1.049-2.85,2.25
		c-0.074,0.525,0.15,1.275,0.6,2.249c0.15,0.749-0.45,1.124-1.799,1.124c-1.949,0-2.924,0.451-2.924,1.425
		c0,0.375,0.226,0.899,0.75,1.724c-2.024,0.227-2.999,0.9-2.999,2.025c0,1.049,0.899,2.248,2.624,3.598
		c1.724,1.35,2.624,2.25,2.624,2.625c0,0.824-0.825,1.349-2.398,1.572c-1.649,0.227-2.475,0.75-2.475,1.65
		c0,0.3,0.149,0.675,0.45,1.05h3.897c-0.074-0.075-0.074-0.075-0.074-0.149c2.324-0.449,3.448-1.875,3.448-4.273
		c0-0.675-0.375-1.5-1.199-2.324c-1.575-1.725-2.474-2.699-2.55-2.774c3.6-4.874,6.373-7.946,8.247-9.37
		c0.899-0.676,1.5-1.424,1.725-2.25c0.15-0.674,0.975-1.35,2.549-1.874c3.074-1.125,5.548-2.325,7.497-3.749h5.998v0.15
		c0.375,0.898,0.825,2.924,1.424,6.147c0.524,2.549,1.274,4.647,2.324,6.223c0.225,0.375,0.9,0.974,2.024,1.649
		c1.124,0.75,1.949,1.123,2.474,1.199v2.775c1.125,2.322,5.174,4.121,12.146,5.321c0.899,0,1.949-0.599,3.224-1.724
		c1.574,0.523,3.449,0.449,5.623-0.15c1.125-0.3,2.024-0.675,2.625-1.125c0.599,0,1.799,0.975,3.598,2.85
		c1.724,1.873,4.573,2.773,8.396,2.773c0.525,0,1.05-0.075,1.65-0.15c-0.076,0.227-0.15,0.525-0.15,0.825h2.849v-0.075
		c0.524-1.05,0.975-1.875,1.2-2.398c0.449-0.375,0.675-0.75,0.675-1.049c-0.076-0.977-0.601-1.5-1.574-1.5v0.074
		c-0.076-0.074-0.226-0.074-0.375-0.074c-0.601,0-1.125,0.375-1.575,1.199c-0.974,0.225-2.399,0.301-4.198,0.301
		c-0.524,0-0.899-0.375-0.975-1.125c-0.075-0.75-0.524-1.125-1.274-1.125c-1.124,0.523-1.949,0.75-2.624,0.75
		c-0.225,0-0.45-0.75-0.674-2.25c-0.226-1.499-0.75-2.249-1.575-2.249c-1.349,0.375-2.249,0.526-2.774,0.375
		C78.568,155.264,78.119,154.363,77.22,154.363L77.22,154.363z"/>
	<path d="M131.423,154.063c-0.15-0.524-0.225-0.899-0.225-1.05c-0.6-0.374-0.975-0.525-1.124-0.525
		c-0.451,0-5.999,4.574-16.644,13.646h4.423C121.977,162.46,126.55,158.487,131.423,154.063L131.423,154.063z"/>
	<path d="M20.467,166.134h-3.897c0.149,0.224,0.375,0.45,0.674,0.75c0.75,0.675,1.125,1.499,1.125,2.397
		c0,0.602-0.3,1.125-0.899,1.575c-0.675,0.45-0.975,0.901-0.975,1.425c0,0.15,0.899,0.975,2.624,2.475
		c1.724,1.498,2.623,2.924,2.623,4.348c0,2.85,1.2,4.498,3.6,4.873c2.324,0.375,3.522,1.574,3.522,3.598
		c0,0.602-0.224,1.575-0.749,2.924c0,0.676,0.075,1.051,0.15,1.125c0.824,0.301,1.274,0.45,1.349,0.45
		c0.301,0,0.676-0.224,1.125-0.675c0.45-0.449,2.549-0.674,6.223-0.674c0.524,0,1.125,0.375,1.799,1.049
		c0.675,0.6,0.975,0.975,0.975,1.199c0,0.074-0.075,0.75-0.3,2.024c-0.075,1.274,0.45,1.95,1.425,1.95
		c0.375,0,0.75-0.375,1.125-1.051c0.375-0.674,1.124-1.049,2.323-1.049c1.125,0,1.799,0.225,2.024,0.676
		c0.226,0.447,0.675,0.674,1.424,0.674c0.825,0,1.275-0.45,1.275-1.424c0-0.977,1.649-1.426,5.023-1.426
		c2.323,0,3.522,0.226,3.598,0.676c0.15,0.449,0.675,0.674,1.574,0.674c0.825,0,1.274-0.375,1.425-1.199
		c0.15-0.826,1.274-1.273,3.374-1.273c2.324,0,3.598,0.447,3.824,1.273c0.225,0.824,0.75,1.199,1.499,1.199
		c0.601,0,0.976-0.15,1.05-0.525c0.075-0.449,0.225-0.824,0.375-1.049c0.674-0.975,3.298-1.425,7.947-1.273
		c0,0.074,0.074,0.375,0.149,0.898c0.226,0.525,0.675,0.825,1.349,0.825c3.975,0,16.494-9.146,37.636-27.439h-4.423
		c-1.725,1.425-3.6,2.924-5.548,4.647c-14.244,12.221-23.091,18.293-26.464,18.293c-5.173,0-8.546,0.227-9.972,0.75
		c-0.524,0.45-1.274,0.674-2.099,0.674c0-0.822-1.799-1.273-5.473-1.273c-1.424,0-2.549,0.3-3.374,0.824
		c-0.824,0.525-1.424,0.824-1.874,0.824c-5.173,0-8.172,0.15-8.996,0.525c-0.825,0.3-3.299,0.451-7.271,0.451
		c-2.175-4.35-5.773-5.699-10.646-4.124c-0.075-3.299-2.475-5.698-7.122-7.122c0-3.074-0.6-5.174-1.874-6.297
		c-1.275-1.125-1.949-1.875-1.949-2.325C20.768,168.908,20.692,166.959,20.467,166.134L20.467,166.134z"/>
	<path d="M99.187,169.357c0-0.225-0.076-0.449-0.151-0.6c-0.224-0.375-0.599-0.674-1.199-0.9c-0.299-0.074-0.674-0.148-1.049-0.225
		c-1.649-0.225-2.475-0.674-2.475-1.499h-2.849c0,0.075,0,0.075,0,0.149s0.226,0.824,0.601,2.25c0.749,1.199,1.948,1.873,3.598,2.1
		c-0.075,0.375-0.075,0.824-0.075,1.349c0,0.974,0.075,1.799,0.15,2.399c0.825,0.301,1.274,0.449,1.35,0.449
		c0.524,0,1.199-1.648,2.024-4.947c0.076-0.15,0.076-0.301,0.076-0.45V169.357L99.187,169.357z"/>
	<path d="M162.835,175.28c0.301,0.75,0.526,1.799,0.75,3.224c0.825,0.299,1.274,0.45,1.35,0.45c0.524,0,0.899-0.226,1.125-0.675
		c0.375,0.074,0.75,0.074,1.274,0.148c1.799,0.227,2.924,0.9,3.448,2.176c0.375,0.748,0.524,1.873,0.524,3.297
		c0,0.977-0.6,2.102-1.874,3.225c-1.274,1.125-1.873,1.801-1.873,2.176c0,0.523,0.149,0.822,0.524,1.049
		c0.299,0.375,1.049,0.974,2.323,1.949c1.574,1.274,2.399,2.323,2.399,3.297c0,0.227-0.375,1.125-1.125,2.7
		c0,0.825,0.524,1.274,1.649,1.274c0.449,0,0.824-0.149,1.199-0.375c1.874,0.15,2.924,0.824,2.999,2.1
		c0,0.75-0.149,1.799-0.45,3.072c0.825,0.301,1.274,0.451,1.35,0.451c0.9,0,1.351-1.125,1.351-3.447
		c0.599-3.525-0.75-5.324-4.124-5.4c0-0.074,0-0.148,0-0.224c0-3.599-0.899-5.848-2.774-6.747c0.825-1.125,1.274-2.774,1.274-5.023
		c0.676-5.248-1.274-7.871-5.696-7.871c-0.976,0-1.726,0.074-2.25,0.299c-0.825-4.199-2.848-6.297-6.146-6.297
		c-2.625,0-4.948,0.449-6.898,1.275c-0.074,0.074-0.15,0.074-0.224,0.148c-0.676-3.674-2.551-5.547-5.475-5.547
		c-0.074,0-0.224,0-0.3,0v-0.074c0.375-3.45-1.198-5.174-4.723-5.174c-1.725,0-2.624,0.523-2.624,1.574
		c0,0.6,0.899,1.123,2.774,1.574c1.725,0.45,2.323,1.949,1.874,4.498c0.824,0.3,1.274,0.451,1.349,0.451c0.076,0,0.226,0,0.301,0
		c0.3,0.224,0.675,0.447,1.199,0.748c1.725,1.051,2.624,2.1,2.624,3.225l-0.375,1.574c0,1.049,0.524,1.574,1.649,1.574
		s1.726-0.451,1.949-1.273c0.45-0.151,1.051-0.375,1.874-0.676c1.574-0.6,3.149-0.899,4.724-0.899
		C161.186,173.106,162.236,173.855,162.835,175.28L162.835,175.28z"/>
	<path d="M110.206,186.377c1.35-2.102,1.05-3.15-0.974-3.15c-1.35,0-2.024,0.975-2.024,2.999c0,0.075,0.149,0.825,0.524,2.249
		c0.525,0.975,1.424,1.574,2.699,1.875c-0.375,0.898-0.601,2.174-0.601,3.748c0,0.074,0.375,1.274,1.2,3.674
		c0.524,1.123,1.125,1.949,1.799,2.549c-0.375,0.524-0.75,1.199-1.125,2.024c-0.75,1.874-1.125,3.374-1.125,4.647
		c0,0.075,0.375,1.65,1.125,4.799c1.574,3.074,4.498,4.646,8.621,4.646c1.949,0,3.449-0.299,4.498-0.822
		c0.075,0.224,0.075,0.523,0.15,0.822c0.899,1.727,2.773,2.625,5.623,2.625c0.074,0,0.149,0,0.225,0c0,0.15,0,0.299,0,0.45
		c0,0.075,0.075,0.75,0.15,2.099c0.674,1.275,2.549,1.949,5.622,1.949c0.3,0,0.601-0.074,0.975-0.15c0,0.227,0,0.45,0,0.676
		c0,0.074,0,0.748,0,2.024c0.45,1.274,1.725,1.95,3.898,1.95c1.575,0,2.324-0.451,2.324-1.352c0-0.824-0.525-1.273-1.649-1.349
		c-1.124-0.151-1.724-0.599-1.724-1.425c0.75-1.424,1.125-2.324,1.125-2.848c0-0.977-0.524-1.5-1.574-1.5c-0.075,0-0.075,0-0.15,0
		c-0.449,0.225-0.899,0.449-1.274,0.6c-0.675,0.225-1.349,0.375-2.024,0.375c-1.049-0.15-1.949-0.225-2.698-0.225
		c-0.075-0.227-0.15-0.525-0.15-0.825c0.525-1.05,0.601-1.8,0.375-2.249c0-0.076,0-0.15,0-0.225c0-1.424-0.75-1.95-2.174-1.575
		c-1.875,0.45-3.149,0.375-3.823-0.224c-0.226-0.227-0.45-1.051-0.525-2.4c-0.075-0.898-0.525-1.349-1.199-1.424
		c-0.226-0.3-0.601-0.451-1.125-0.451c-0.824,0-1.274,0.451-1.424,1.275c-0.15,0.826-1.349,1.199-3.524,1.199
		c-4.573,0-6.821-2.174-6.821-6.521c0-1.35,0.599-2.774,1.873-4.273c0.375-0.451,0.75-0.826,1.051-1.201
		c1.049-0.148,1.574-0.748,1.574-1.799c0-0.974-0.9-1.724-2.625-2.099c-1.724-0.375-2.623-1.575-2.623-3.522
		c0-0.676,0.3-1.424,0.975-2.4c0.6-0.974,0.899-1.5,0.899-1.648c0-0.15,0-0.299,0-0.375c0-0.15,0-0.299,0-0.375
		c0-0.674-0.749-1.199-2.175-1.574C110.956,187.275,110.206,186.824,110.206,186.377L110.206,186.377z"/>
</g>
</svg>
